<?xml version="1.0" encoding="utf-8"?>
<!-- Generator: Adobe Illustrator 18.1.1, SVG Export Plug-In . SVG Version: 6.00 Build 0)  -->
<svg version="1.1" id="Layer_1" xmlns="http://www.w3.org/2000/svg" xmlns:xlink="http://www.w3.org/1999/xlink" x="0px" y="0px"
	 viewBox="0 0 2048 1536" enable-background="new 0 0 2048 1536" xml:space="preserve">
<path d="M825.6,526.9v484.3c0,53.3,44.8,68.3,98.1,32L1271.5,832c55.5-34.1,55.5-91.7,0-128L923.7,492.8
	C868.3,458.7,825.6,473.6,825.6,526.9z"/>
<g>
	<path d="M1024,118c87.8,0,172.9,17.2,253,51c38.5,16.3,75.6,36.4,110.4,59.9c34.4,23.3,66.8,50,96.3,79.4
		c29.4,29.4,56.2,61.8,79.4,96.3c23.5,34.7,43.6,71.9,59.9,110.4c33.9,80.1,51,165.2,51,253s-17.2,172.9-51,253
		c-16.3,38.5-36.4,75.6-59.9,110.4c-23.3,34.4-50,66.8-79.4,96.3c-29.4,29.4-61.8,56.2-96.3,79.4c-34.7,23.5-71.9,43.6-110.4,59.9
		c-80.1,33.9-165.2,51-253,51s-172.9-17.2-253-51c-38.5-16.3-75.6-36.4-110.4-59.9c-34.4-23.3-66.8-50-96.3-79.4
		c-29.4-29.4-56.2-61.8-79.4-96.3c-23.5-34.7-43.6-71.9-59.9-110.4c-33.9-80.1-51-165.2-51-253s17.2-172.9,51-253
		c16.3-38.5,36.4-75.6,59.9-110.4c23.3-34.4,50-66.8,79.4-96.3c29.4-29.4,61.8-56.2,96.3-79.4c34.7-23.5,71.9-43.6,110.4-59.9
		C851.1,135.2,936.2,118,1024,118 M1024,0C599.8,0,256,343.8,256,768s343.8,768,768,768s768-343.8,768-768S1448.2,0,1024,0L1024,0z"
		/>
</g>
</svg>
