<?xml version="1.0" encoding="utf-8"?>
<!-- Generated by IcoMoon.io -->
<!DOCTYPE svg PUBLIC "-//W3C//DTD SVG 1.1//EN" "http://www.w3.org/Graphics/SVG/1.1/DTD/svg11.dtd">
<svg version="1.1" xmlns="http://www.w3.org/2000/svg" xmlns:xlink="http://www.w3.org/1999/xlink" width="32" height="32" viewBox="0 0 32 32">
<path fill="#000000" d="M26.722 28.384c0 1.511-1.227 2.741-2.743 2.741-1.513 0-2.74-1.229-2.74-2.741 0-1.516 1.227-2.743 2.74-2.743 1.516 0 2.743 1.227 2.743 2.743zM11.187 28.384c0 1.511-1.226 2.741-2.742 2.741-1.515 0-2.742-1.229-2.742-2.741 0-1.516 1.227-2.743 2.742-2.743 1.516 0 2.742 1.227 2.742 2.743zM29.888 7.567c0 0-2.817 8.628-2.869 8.799-0.309 1.014-0.624 1.492-2.010 1.492h-16.275v2.231h17.333c0.361 0 0.655 0.297 0.655 0.657v1.573c0 0.363-0.295 0.658-0.655 0.658h-19.772c-0.363 0-0.657-0.295-0.657-0.658l-0-18.607h-2.973c-0.364 0-0.658-0.293-0.658-0.656v-1.525c0-0.361 0.294-0.656 0.658-0.656h5.444c0.361 0 0.655 0.295 0.655 0.658v3.983h19.616c1.132 0 1.848 0.915 1.509 2.052z"></path>
</svg>
