<?xml version="1.0" encoding="utf-8"?>
<!-- Generated by IcoMoon.io -->
<!DOCTYPE svg PUBLIC "-//W3C//DTD SVG 1.1//EN" "http://www.w3.org/Graphics/SVG/1.1/DTD/svg11.dtd">
<svg version="1.1" xmlns="http://www.w3.org/2000/svg" xmlns:xlink="http://www.w3.org/1999/xlink" width="32" height="32" viewBox="0 0 32 32">
<path fill="#000000" d="M29.71 5.876l0.006-0.006c0.224-0.38 0.364-0.809 0.364-1.274 0-1.467-1.282-2.659-2.865-2.659-0.918 0-1.724 0.406-2.246 1.027l-0.003-0.002-0.009 0.014c-0.143 0.173-0.274 0.358-0.37 0.56l-12.069 18.991-5.348-6.017c-0.513-0.713-1.497-1.518-2.781-1.518-1.73 0-2.467 1.593-2.467 2.993 0 0.747 0.405 1.35 0.865 1.901l7.408 9.101c0.476 0.526 1.313 1.076 2.324 1.076 1.195 0 1.854-0.417 2.321-1.076l14.676-22.82c0.075-0.092 0.137-0.19 0.196-0.291z"></path>
</svg>
