<?xml version="1.0" encoding="utf-8"?>
<!-- Generated by IcoMoon.io -->
<!DOCTYPE svg PUBLIC "-//W3C//DTD SVG 1.1//EN" "http://www.w3.org/Graphics/SVG/1.1/DTD/svg11.dtd">
<svg version="1.1" xmlns="http://www.w3.org/2000/svg" xmlns:xlink="http://www.w3.org/1999/xlink" width="32" height="32" viewBox="0 0 32 32">
<path fill="rgb(68, 68, 68)" d="M30.044 26.239l-12.268-22.466c-0.328-0.591-0.985-0.975-1.677-0.978-0.72-0.003-1.351 0.377-1.683 0.965l-12.572 22.571c-0.33 0.588-0.333 1.294 0.025 1.854s0.955 0.916 1.645 0.918l24.958 0.101c1.050 0.004 1.923-0.816 1.927-1.876 0.002-0.411-0.147-0.794-0.356-1.090zM15.972 19.916c-0.54-0.002-1.078-0.534-1.167-1.122-0.47-2.474-0.7-5.122-0.929-7.329-0.028-0.5 0.392-1.058 0.935-1.173 0.99-0.171 1.56-0.169 2.548 0.010 0.57 0.12 0.928 0.68 0.895 1.181-0.25 2.205-0.499 4.852-0.99 7.321-0.092 0.588-0.633 1.115-1.202 1.113l-0.092-0zM16.004 26.595c-1.2-0.005-2.157-0.951-2.152-2.127s0.97-2.114 2.169-2.11c1.202 0.005 2.157 0.95 2.151 2.127-0.005 1.176-0.967 2.114-2.168 2.11z"></path>
</svg>
