<?xml version="1.0" encoding="utf-8"?>
<!-- Generated by IcoMoon.io -->
<!DOCTYPE svg PUBLIC "-//W3C//DTD SVG 1.1//EN" "http://www.w3.org/Graphics/SVG/1.1/DTD/svg11.dtd">
<svg version="1.1" xmlns="http://www.w3.org/2000/svg" xmlns:xlink="http://www.w3.org/1999/xlink" width="32" height="32" viewBox="0 0 32 32">
<path fill="#000000" d="M29.764 26.158l-6.276-6.275c1.194-1.863 1.896-4.073 1.896-6.45 0-6.611-5.36-11.972-11.973-11.972s-11.972 5.361-11.972 11.972c0 6.613 5.36 11.974 11.972 11.974 2.377 0 4.587-0.703 6.45-1.897l6.274 6.275c0.501 0.501 1.158 0.752 1.813 0.752 0.657 0 1.314-0.251 1.814-0.752 1.003-1.001 1.003-2.625 0-3.628zM13.413 21.482c-4.437 0-8.046-3.61-8.046-8.047s3.609-8.046 8.046-8.046 8.047 3.61 8.047 8.046c0 4.437-3.61 8.047-8.047 8.047z"></path>
</svg>
